<mxfile host="app.diagrams.net" agent="Mozilla/5.0 (Macintosh; Intel Mac OS X 10_15_7) AppleWebKit/537.36 (KHTML, like Gecko) Chrome/136.0.0.0 Safari/537.36" version="28.2.3">
  <diagram name="ページ1" id="xtR3QMY_ivg9KzAQHW-j">
    <mxGraphModel dx="602" dy="924" grid="1" gridSize="10" guides="1" tooltips="1" connect="1" arrows="1" fold="1" page="1" pageScale="1" pageWidth="827" pageHeight="1169" math="0" shadow="0">
      <root>
        <mxCell id="0" />
        <mxCell id="1" parent="0" />
        <mxCell id="ZU2mIR0JqzNXLWRJzjO4-150" value="" style="verticalLabelPosition=bottom;verticalAlign=top;html=1;shape=mxgraph.basic.rect;fillColor2=none;strokeWidth=1;size=20;indent=5;strokeColor=none;" parent="1" vertex="1">
          <mxGeometry x="871" y="350" width="740" height="450" as="geometry" />
        </mxCell>
        <mxCell id="ZU2mIR0JqzNXLWRJzjO4-7" value="&lt;font style=&quot;font-size: 24px;&quot;&gt;プロダクト&lt;/font&gt;" style="rounded=0;whiteSpace=wrap;html=1;strokeWidth=2;" parent="1" vertex="1">
          <mxGeometry x="1380" y="580" width="168" height="120" as="geometry" />
        </mxCell>
        <mxCell id="8zwILogoymlyrs0o4flI-3" style="edgeStyle=orthogonalEdgeStyle;rounded=0;orthogonalLoop=1;jettySize=auto;html=1;entryX=0;entryY=0.5;entryDx=0;entryDy=0;" edge="1" parent="1" source="ZU2mIR0JqzNXLWRJzjO4-46" target="ZU2mIR0JqzNXLWRJzjO4-87">
          <mxGeometry relative="1" as="geometry" />
        </mxCell>
        <mxCell id="8zwILogoymlyrs0o4flI-9" style="edgeStyle=orthogonalEdgeStyle;rounded=0;orthogonalLoop=1;jettySize=auto;html=1;" edge="1" parent="1">
          <mxGeometry relative="1" as="geometry">
            <mxPoint x="998.5" y="660" as="targetPoint" />
            <mxPoint x="998.521739130435" y="540.0000000000002" as="sourcePoint" />
          </mxGeometry>
        </mxCell>
        <mxCell id="ZU2mIR0JqzNXLWRJzjO4-46" value="&lt;font style=&quot;font-size: 18px;&quot;&gt;開発者&lt;/font&gt;" style="shape=umlActor;verticalLabelPosition=bottom;verticalAlign=top;html=1;outlineConnect=0;strokeWidth=2;" parent="1" vertex="1">
          <mxGeometry x="963.5" y="380" width="70" height="130" as="geometry" />
        </mxCell>
        <mxCell id="ZU2mIR0JqzNXLWRJzjO4-59" value="&lt;font style=&quot;font-size: 24px;&quot;&gt;ドキュメント&lt;/font&gt;" style="rounded=0;whiteSpace=wrap;html=1;strokeWidth=2;" parent="1" vertex="1">
          <mxGeometry x="930" y="660" width="150" height="40" as="geometry" />
        </mxCell>
        <mxCell id="ZU2mIR0JqzNXLWRJzjO4-61" value="&lt;font style=&quot;font-size: 18px;&quot;&gt;書く・読む&lt;/font&gt;" style="text;html=1;align=center;verticalAlign=middle;resizable=0;points=[];autosize=1;strokeColor=none;fillColor=none;" parent="1" vertex="1">
          <mxGeometry x="1000" y="570" width="110" height="40" as="geometry" />
        </mxCell>
        <mxCell id="ZU2mIR0JqzNXLWRJzjO4-64" value="&lt;font style=&quot;font-size: 24px;&quot;&gt;開発&lt;/font&gt;&lt;div&gt;&lt;font style=&quot;font-size: 24px;&quot;&gt;ツール&lt;/font&gt;&lt;/div&gt;" style="rounded=0;whiteSpace=wrap;html=1;strokeWidth=2;" parent="1" vertex="1">
          <mxGeometry x="1180" y="635" width="100" height="65" as="geometry" />
        </mxCell>
        <mxCell id="ZU2mIR0JqzNXLWRJzjO4-65" value="&lt;font style=&quot;font-size: 18px;&quot;&gt;使う&lt;/font&gt;" style="text;html=1;align=center;verticalAlign=middle;resizable=0;points=[];autosize=1;strokeColor=none;fillColor=none;" parent="1" vertex="1">
          <mxGeometry x="1230" y="570" width="60" height="40" as="geometry" />
        </mxCell>
        <mxCell id="8zwILogoymlyrs0o4flI-6" style="edgeStyle=orthogonalEdgeStyle;rounded=0;orthogonalLoop=1;jettySize=auto;html=1;" edge="1" parent="1" source="ZU2mIR0JqzNXLWRJzjO4-83">
          <mxGeometry relative="1" as="geometry">
            <mxPoint x="1480" y="580" as="targetPoint" />
          </mxGeometry>
        </mxCell>
        <mxCell id="ZU2mIR0JqzNXLWRJzjO4-83" value="&lt;font style=&quot;font-size: 24px;&quot;&gt;コード&lt;/font&gt;" style="rounded=0;whiteSpace=wrap;html=1;strokeWidth=2;" parent="1" vertex="1">
          <mxGeometry x="1330" y="425" width="90" height="40" as="geometry" />
        </mxCell>
        <mxCell id="8zwILogoymlyrs0o4flI-4" style="edgeStyle=orthogonalEdgeStyle;rounded=0;orthogonalLoop=1;jettySize=auto;html=1;entryX=0;entryY=0.5;entryDx=0;entryDy=0;" edge="1" parent="1" source="ZU2mIR0JqzNXLWRJzjO4-87" target="ZU2mIR0JqzNXLWRJzjO4-83">
          <mxGeometry relative="1" as="geometry" />
        </mxCell>
        <mxCell id="ZU2mIR0JqzNXLWRJzjO4-87" value="&lt;font style=&quot;font-size: 24px;&quot;&gt;チケット&lt;/font&gt;" style="rounded=0;whiteSpace=wrap;html=1;strokeWidth=2;" parent="1" vertex="1">
          <mxGeometry x="1140" y="425" width="110" height="40" as="geometry" />
        </mxCell>
        <mxCell id="ZU2mIR0JqzNXLWRJzjO4-90" value="&lt;font style=&quot;font-size: 18px;&quot;&gt;実装&lt;/font&gt;" style="text;html=1;align=center;verticalAlign=middle;resizable=0;points=[];autosize=1;strokeColor=none;fillColor=none;" parent="1" vertex="1">
          <mxGeometry x="1255" y="410" width="60" height="40" as="geometry" />
        </mxCell>
        <mxCell id="ZU2mIR0JqzNXLWRJzjO4-91" value="&lt;font style=&quot;font-size: 18px;&quot;&gt;テスト&lt;/font&gt;" style="text;html=1;align=center;verticalAlign=middle;resizable=0;points=[];autosize=1;strokeColor=none;fillColor=none;" parent="1" vertex="1">
          <mxGeometry x="1480" y="465" width="80" height="40" as="geometry" />
        </mxCell>
        <mxCell id="ZU2mIR0JqzNXLWRJzjO4-92" value="&lt;font style=&quot;font-size: 18px;&quot;&gt;リリース&lt;/font&gt;" style="text;html=1;align=center;verticalAlign=middle;resizable=0;points=[];autosize=1;strokeColor=none;fillColor=none;" parent="1" vertex="1">
          <mxGeometry x="1475" y="520" width="90" height="40" as="geometry" />
        </mxCell>
        <mxCell id="ZU2mIR0JqzNXLWRJzjO4-102" value="&lt;font style=&quot;font-size: 18px;&quot;&gt;アサイン&lt;/font&gt;" style="text;html=1;align=center;verticalAlign=middle;resizable=0;points=[];autosize=1;strokeColor=none;fillColor=none;" parent="1" vertex="1">
          <mxGeometry x="1038.5" y="410" width="90" height="40" as="geometry" />
        </mxCell>
        <mxCell id="8zwILogoymlyrs0o4flI-10" style="edgeStyle=orthogonalEdgeStyle;rounded=0;orthogonalLoop=1;jettySize=auto;html=1;" edge="1" parent="1" target="ZU2mIR0JqzNXLWRJzjO4-64">
          <mxGeometry relative="1" as="geometry">
            <mxPoint x="1033.501739130435" y="520.0000000000002" as="sourcePoint" />
            <mxPoint x="1110" y="596.52" as="targetPoint" />
          </mxGeometry>
        </mxCell>
      </root>
    </mxGraphModel>
  </diagram>
</mxfile>
